<svg width="303" height="383" viewBox="0 0 303 383" fill="none" xmlns="http://www.w3.org/2000/svg">
<path d="M297.573 0H5C2.23858 0 0 2.23858 0 5V377.64C0 380.401 2.23857 382.64 5 382.64H297.573C300.335 382.64 302.573 380.401 302.573 377.64V5C302.573 2.23858 300.335 0 297.573 0Z" fill="#5F0F40"/>
<g opacity="0.3">
<path d="M97.6547 95.8659C101.189 104.145 104.361 112.738 107.945 120.962C108.961 123.293 111.596 124.419 114.033 123.692C138.871 116.286 163.737 116.277 188.582 123.667C191.055 124.403 193.722 123.23 194.742 120.86C200.606 107.234 206.069 93.2188 211.731 79.4155C212.778 76.8635 211.584 73.9337 208.993 72.9873C175.381 60.7102 127.238 60.7178 93.6441 73.01C91.0781 73.9489 89.8778 76.8379 90.9061 79.3693C93.1412 84.8714 95.4196 90.3613 97.6547 95.8659Z" fill="white" fill-opacity="0.5"/>
<path d="M112.532 172.402C110.312 167.507 108.586 162.22 106.408 157.311C105.315 154.848 102.365 153.932 100.021 155.261C86.516 162.922 74.854 173.561 65.8695 186.39C64.2098 188.76 65.0736 192.007 67.6182 193.384C80.8095 200.522 94.0296 207.795 107.296 214.652C109.402 215.741 111.965 215.17 113.565 213.421C116.12 210.625 118.898 208.095 121.911 205.805C123.787 204.381 124.583 201.9 123.707 199.714C120.044 190.58 116.221 181.525 112.532 172.402Z" fill="white" fill-opacity="0.5"/>
<path d="M83.1726 219.166C83.1736 219.166 83.1739 219.165 83.173 219.164C75.4707 215.196 67.9108 210.74 60.2046 206.825C57.7222 205.564 54.709 206.663 53.7182 209.266C49.865 219.386 47.0918 232.206 46.8924 242.434C46.8408 245.075 49.0606 247.109 51.7027 247.099C66.5061 247.041 81.338 247.366 96.1148 247.061C98.7687 247.007 100.872 244.86 101.144 242.22C101.427 239.484 101.898 236.79 102.565 234.12C103.133 231.848 102.205 229.424 100.15 228.301C94.5085 225.215 88.8269 222.248 83.1721 219.168C83.1712 219.167 83.1716 219.166 83.1726 219.166Z" fill="white" fill-opacity="0.5"/>
<path d="M183.088 146.655C163.971 140.615 142.95 139.956 123.648 145.502C120.897 146.293 119.541 149.322 120.625 151.972C126.329 165.919 132.008 179.808 137.72 193.741C138.639 195.984 141.033 197.22 143.433 196.881C148.697 196.137 154.01 196.137 159.275 196.881C161.674 197.22 164.068 195.985 164.987 193.742C171.227 178.526 177.428 163.351 183.666 148.102C183.895 147.54 183.67 146.827 183.088 146.655Z" fill="white" fill-opacity="0.5"/>
<path d="M235.079 193.385C237.624 192.008 238.488 188.759 236.827 186.389C227.913 173.666 216.364 163.09 202.994 155.442C200.532 154.033 197.433 155.12 196.285 157.714C190.226 171.405 184.809 185.7 179.076 199.656C178.166 201.87 178.951 204.405 180.856 205.855C183.845 208.131 186.599 210.645 189.135 213.421C190.733 215.171 193.296 215.741 195.402 214.653C208.673 207.796 221.889 200.523 235.079 193.385Z" fill="white" fill-opacity="0.5"/>
<path d="M249.028 209.388C248.023 206.738 244.931 205.653 242.41 206.948C229.104 213.781 215.92 221.149 202.702 228.274C200.574 229.421 199.587 231.917 200.166 234.264C200.814 236.887 201.275 239.533 201.554 242.22C201.827 244.86 203.931 247.007 206.584 247.061C221.361 247.366 236.192 247.041 250.996 247.099C253.638 247.109 255.858 245.075 255.807 242.433C255.611 232.234 252.862 219.497 249.028 209.388Z" fill="white" fill-opacity="0.5"/>
<path d="M74.7906 80.6854C74.792 80.684 74.7906 80.6817 74.7888 80.6825C49.4171 91.0778 17.9674 117.95 0.817005 143.55C0.276684 144.357 0 145.302 0 146.273V154.205C0 156.023 0.984406 157.698 2.57877 158.572C13.634 164.635 30.8224 173.752 38.4386 177.706C40.6184 178.837 43.1742 178.088 44.5339 176.042C52.9386 163.4 63.1676 152.407 75.3768 143.335C80.4777 139.288 86.2544 136.151 91.8204 132.933C93.9539 131.7 94.8116 129.076 93.8733 126.797C87.5665 111.481 81.3591 96.0532 74.9393 80.7727C74.9332 80.7581 74.9238 80.7449 74.9101 80.737C74.8742 80.7163 74.8301 80.7074 74.7911 80.6882C74.79 80.6877 74.7898 80.6862 74.7906 80.6854Z" fill="white" fill-opacity="0.5"/>
<path d="M18.3311 247.086C21.0167 247.053 23.1735 244.889 23.323 242.207C24.1786 226.862 27.6075 211.589 33.0655 197.342C33.9856 194.94 33.0222 192.206 30.757 190.988C22.9883 186.811 15.1939 182.619 7.36895 178.41C4.03777 176.618 0 179.031 0 182.813V242.166C0 244.923 2.23233 247.161 4.98975 247.16C9.44006 247.159 13.8887 247.14 18.3311 247.086Z" fill="white" fill-opacity="0.5"/>
<path d="M227.994 80.7167C227.935 80.6925 227.866 80.6915 227.808 80.716C227.774 80.73 227.754 80.7601 227.74 80.7935C221.361 95.977 215.192 111.306 208.926 126.526C207.942 128.917 208.943 131.659 211.197 132.927C229.811 143.404 246.308 157.864 258.166 175.957C259.528 178.035 262.113 178.813 264.318 177.668C271.934 173.713 288.954 164.683 299.992 158.635C301.588 157.761 302.574 156.086 302.574 154.266V146.08C302.574 145.106 302.295 144.157 301.751 143.349C284.584 117.834 253.279 91.0969 227.994 80.7167Z" fill="white" fill-opacity="0.5"/>
<path d="M271.944 190.988C269.678 192.206 268.714 194.941 269.635 197.343C275.097 211.593 278.521 226.86 279.376 242.203C279.526 244.886 281.685 247.051 284.373 247.083C288.772 247.136 293.177 247.157 297.584 247.159C300.341 247.161 302.574 244.923 302.574 242.166V182.886C302.574 179.103 298.535 176.69 295.204 178.482C287.424 182.667 279.671 186.835 271.944 190.988Z" fill="white" fill-opacity="0.5"/>
</g>
</svg>
