<svg width="303" height="383" viewBox="0 0 303 383" fill="none" xmlns="http://www.w3.org/2000/svg">
<path d="M297.587 0.182129H5.01367C2.25225 0.182129 0.0136719 2.42071 0.0136719 5.18213V377.822C0.0136719 380.583 2.25224 382.822 5.01367 382.822H297.587C300.348 382.822 302.587 380.583 302.587 377.822V5.18213C302.587 2.42071 300.348 0.182129 297.587 0.182129Z" fill="#9A031E"/>
<path opacity="0.3" d="M81.1401 257.315C81.1396 257.316 81.1387 257.315 81.1391 257.314C82.8277 254.485 84.3243 251.554 86.1143 249.245C86.7645 248.406 86.1888 246.981 85.1275 246.981H37.5845C29.7615 246.981 20.3394 249.935 13.7627 254.554C13.6018 254.637 13.41 254.52 13.41 254.339V248.774C13.41 246.768 15.0357 245.143 17.0412 245.143H93.4791C98.3052 245.143 101.863 252.93 99.298 257.018C96.5005 261.476 93.9333 266.062 92.1653 268.949L30.9523 370.648C28.9465 373.981 31.3466 378.227 35.2362 378.227H79.0119C86.8349 378.227 96.257 375.09 102.834 370.653C102.995 370.57 103.186 370.687 103.186 370.868V376.433C103.186 378.439 101.561 380.065 99.5552 380.065H16.7126C12.8317 380.065 10.4303 375.836 12.4187 372.503L81.1412 257.316C81.1416 257.315 81.1407 257.314 81.1401 257.315Z" fill="white" fill-opacity="0.5"/>
<path opacity="0.3" d="M162.079 379.336C162.167 379.712 161.881 380.073 161.494 380.073H140.793C140.406 380.073 140.12 379.712 140.209 379.336C142.521 372.697 143.767 363.824 143.767 357.185V268.03C143.767 261.193 142.513 252.336 140.209 245.879C140.12 245.503 140.406 245.143 140.793 245.143H161.494C161.881 245.143 162.167 245.503 162.079 245.879C159.939 252.336 158.52 261.193 158.52 268.03V357.185C158.52 363.824 159.946 372.697 162.079 379.336Z" fill="white" fill-opacity="0.5"/>
<path opacity="0.3" d="M252.944 380.073H237.51C234.09 380.073 231.671 376.709 232.435 373.376C233.664 368.014 234.28 362.51 234.28 357.186V251.989C234.28 249.227 232.042 246.989 229.28 246.989H216.674C208.859 246.989 199.437 249.944 192.853 254.562C192.692 254.645 192.5 254.529 192.5 254.348V248.782C192.5 246.777 194.126 245.151 196.131 245.151H287.37C289.362 245.151 290.977 246.766 290.977 248.758V254.355C290.977 254.532 290.789 254.645 290.632 254.562C284.048 249.944 274.626 246.989 266.803 246.989H254.205C251.444 246.989 249.205 249.227 249.205 251.989V357.186C249.205 364.757 250.443 372.692 252.934 380.066C252.935 380.07 252.939 380.073 252.944 380.073Z" fill="white" fill-opacity="0.5"/>
<path opacity="0.3" d="M82.4609 101.411C82.4609 101.407 82.4645 101.403 82.4689 101.403H128.325C147.483 101.403 161.757 105.452 171.132 113.548C180.523 121.629 185.21 132.442 185.21 145.957C185.21 159.473 180.515 170.342 171.132 178.502C161.757 186.646 147.483 190.726 128.325 190.726H117.969C115.208 190.726 112.969 192.964 112.969 195.726V236.657C112.969 239.418 110.731 241.657 107.969 241.657H87.4609C84.6995 241.657 82.4609 239.418 82.4609 236.657V101.411ZM112.969 128.648V158.473C112.969 161.235 115.208 163.473 117.969 163.473H128.325C138.296 163.473 145.68 162.182 150.469 159.591C155.259 157.001 157.657 152.469 157.657 145.957C157.657 139.445 155.259 134.962 150.469 132.442C145.68 129.915 138.296 128.655 128.325 128.655H112.977C112.973 128.655 112.969 128.652 112.969 128.648Z" fill="white" fill-opacity="0.5"/>
<path opacity="0.3" d="M202.016 241.649C199.254 241.649 197.016 239.41 197.016 236.649V106.403C197.016 103.642 199.254 101.403 202.016 101.403H288.071C290.832 101.403 293.071 103.642 293.071 106.403V123.648C293.071 126.409 290.832 128.648 288.071 128.648H232.524C229.762 128.648 227.524 130.886 227.524 133.648V152.69C227.524 155.452 229.762 157.69 232.524 157.69H281.58C284.342 157.69 286.58 159.929 286.58 162.69V180.148C286.58 182.91 284.342 185.148 281.58 185.148H232.524C229.762 185.148 227.524 187.387 227.524 190.148V209.405C227.524 212.166 229.762 214.405 232.524 214.405H288.071C290.832 214.405 293.071 216.643 293.071 219.405V236.649C293.071 239.41 290.832 241.649 288.071 241.649H202.016Z" fill="white" fill-opacity="0.5"/>
</svg>
