<svg width="303" height="382" viewBox="0 0 303 382" fill="none" xmlns="http://www.w3.org/2000/svg">
<path d="M297.379 0.237305H5.49609C2.73467 0.237305 0.496094 2.47588 0.496094 5.23731V376.867C0.496094 379.629 2.73467 381.867 5.49609 381.867H297.379C300.14 381.867 302.379 379.629 302.379 376.867V5.2373C302.379 2.47588 300.14 0.237305 297.379 0.237305Z" fill="#E36414"/>
<path opacity="0.3" d="M81.434 256.696C83.7411 252.832 85.6885 248.779 88.5196 246.385H37.9816C30.1765 246.385 20.7759 249.332 14.2142 253.938L13.8623 254.12V244.552H108.924C103.434 248.597 96.1606 262.219 92.4379 268.295L26.8135 377.285H79.3145C87.1197 377.285 96.5203 374.156 103.082 369.731L103.434 369.549V379.118H8.37207L81.4418 256.688L81.434 256.696Z" fill="white" fill-opacity="0.5"/>
<path opacity="0.3" d="M162.363 379.126H140.199L140.371 378.391C142.678 371.77 143.922 362.92 143.922 356.299V267.378C143.922 260.56 142.671 251.726 140.371 245.287L140.199 244.552H162.363L162.191 245.287C160.056 251.726 158.641 260.56 158.641 267.378V356.299C158.641 362.92 160.064 371.77 162.191 378.391L162.363 379.126Z" fill="white" fill-opacity="0.5"/>
<path opacity="0.3" d="M252.858 379.126H230.514C232.993 371.77 234.237 363.853 234.237 356.299V246.393H216.671C208.874 246.393 199.473 249.34 192.904 253.946L192.552 254.128V244.56H290.804V254.128L290.46 253.946C283.891 249.34 274.49 246.393 266.685 246.393H249.127V356.299C249.127 363.853 250.363 371.77 252.85 379.126H252.858Z" fill="white" fill-opacity="0.5"/>
<path opacity="0.3" d="M82.7549 101.191H128.514C147.628 101.191 161.87 105.229 171.224 113.304C180.593 121.363 185.27 132.148 185.27 145.628C185.27 159.108 180.585 169.948 171.224 178.086C161.87 186.209 147.628 190.278 128.514 190.278H113.193V241.075H82.7549V101.199V101.191ZM113.193 128.364V163.098H128.514C138.462 163.098 145.83 161.81 150.608 159.226C155.387 156.642 157.78 152.123 157.78 145.628C157.78 139.133 155.387 134.661 150.608 132.148C145.83 129.628 138.462 128.372 128.514 128.372H113.193V128.364Z" fill="white" fill-opacity="0.5"/>
<path opacity="0.3" d="M197.057 241.067V101.191H292.893V128.364H227.495V157.33H286.417V184.715H227.495V213.895H292.893V241.067H197.057Z" fill="white" fill-opacity="0.5"/>
</svg>
