<svg width="302" height="382" viewBox="0 0 302 382" fill="none" xmlns="http://www.w3.org/2000/svg">
<path d="M296.883 0.0556641H5C2.23858 0.0556641 0 2.29424 0 5.05567V376.686C0 379.447 2.23857 381.686 5 381.686H296.883C299.644 381.686 301.883 379.447 301.883 376.686V5.05566C301.883 2.29424 299.644 0.0556641 296.883 0.0556641Z" fill="#FB8B24"/>
<g opacity="0.3">
<path d="M97.4319 95.6767C100.957 103.931 104.121 112.498 107.695 120.697C108.711 123.028 111.345 124.153 113.782 123.427C138.557 116.044 163.361 116.035 188.142 123.402C190.616 124.137 193.282 122.965 194.302 120.595C200.149 107.013 205.597 93.0422 211.243 79.2829C212.29 76.7305 211.096 73.8001 208.504 72.8541C174.974 60.6153 126.955 60.6229 93.4424 72.8768C90.8758 73.8153 89.6752 76.7049 90.7041 79.2367C92.9323 84.7199 95.2037 90.191 97.4319 95.6767Z" fill="white" fill-opacity="0.5"/>
<path d="M112.275 172.011C110.062 167.132 108.341 161.863 106.169 156.97C105.077 154.507 102.128 153.591 99.7843 154.92C86.318 162.558 74.6888 173.162 65.7279 185.949C64.0671 188.319 64.9312 191.568 67.4765 192.945C80.6311 200.06 93.8144 207.31 107.044 214.146C109.15 215.234 111.712 214.664 113.312 212.915C115.857 210.132 118.624 207.612 121.624 205.333C123.5 203.908 124.297 201.426 123.42 199.24C119.767 190.134 115.955 181.106 112.275 172.011Z" fill="white" fill-opacity="0.5"/>
<path d="M82.9824 218.651C82.9834 218.651 82.9837 218.65 82.9828 218.65C75.3011 214.693 67.7615 210.251 60.0762 206.348C57.5941 205.087 54.5815 206.187 53.591 208.788C49.7503 218.876 46.9861 231.651 46.7852 241.845C46.7331 244.487 48.9528 246.521 51.5949 246.51C66.3574 246.453 81.1483 246.777 95.8843 246.474C98.5381 246.419 100.641 244.273 100.914 241.632C101.196 238.908 101.666 236.226 102.331 233.567C102.897 231.301 101.971 228.883 99.9216 227.762C94.2926 224.684 88.6239 221.726 82.9819 218.653C82.981 218.653 82.9813 218.651 82.9824 218.651Z" fill="white" fill-opacity="0.5"/>
<path d="M182.671 146.323C163.601 140.301 142.633 139.642 123.379 145.17C120.627 145.96 119.271 148.99 120.355 151.641C126.044 165.543 131.707 179.388 137.402 193.276C138.321 195.519 140.715 196.754 143.115 196.415C148.361 195.675 153.656 195.675 158.903 196.416C161.302 196.754 163.695 195.519 164.615 193.277C170.839 178.104 177.024 162.973 183.247 147.767C183.476 147.207 183.251 146.495 182.671 146.323Z" fill="white" fill-opacity="0.5"/>
<path d="M234.53 192.945C237.076 191.568 237.939 188.319 236.278 185.949C227.388 173.268 215.871 162.726 202.54 155.101C200.078 153.693 196.98 154.779 195.832 157.372C189.79 171.021 184.388 185.27 178.671 199.182C177.761 201.397 178.547 203.932 180.452 205.383C183.428 207.649 186.172 210.152 188.697 212.915C190.296 214.664 192.857 215.234 194.963 214.147C208.197 207.311 221.376 200.061 234.53 192.945Z" fill="white" fill-opacity="0.5"/>
<path d="M248.464 208.91C247.459 206.261 244.368 205.176 241.848 206.47C228.579 213.283 215.431 220.627 202.249 227.73C200.121 228.877 199.133 231.374 199.712 233.721C200.356 236.33 200.815 238.96 201.092 241.632C201.367 244.272 203.47 246.419 206.124 246.474C220.86 246.777 235.65 246.453 250.412 246.51C253.055 246.521 255.275 244.486 255.223 241.844C255.026 231.678 252.285 218.987 248.464 208.91Z" fill="white" fill-opacity="0.5"/>
<path d="M74.6218 80.5303C74.6227 80.5303 74.623 80.5315 74.6222 80.5319C49.3088 90.8903 17.9302 117.691 0.817483 143.224C0.276846 144.03 0 144.976 0 145.947V153.846C0 155.664 0.984839 157.339 2.57958 158.214C13.6061 164.258 30.7419 173.344 38.3431 177.289C40.5226 178.42 43.0777 177.67 44.4376 175.626C52.8221 163.02 63.0261 152.059 75.2048 143.013C80.2911 138.979 86.0508 135.851 91.601 132.644C93.7353 131.411 94.5933 128.786 93.6544 126.507C87.3618 111.231 81.168 95.8425 74.7624 80.6016C74.7602 80.5963 74.7567 80.5915 74.752 80.5882C74.7145 80.5616 74.6649 80.553 74.6214 80.5318C74.6206 80.5315 74.6209 80.5303 74.6218 80.5303Z" fill="white" fill-opacity="0.5"/>
<path d="M18.2783 246.498C20.9639 246.465 23.1207 244.3 23.2705 241.619C24.1251 226.322 27.544 211.098 32.9854 196.897C33.9058 194.495 32.9421 191.759 30.6762 190.542C22.9341 186.38 15.1664 182.204 7.36829 178.011C4.03713 176.22 0 178.633 0 182.415V241.577C0 244.334 2.23233 246.572 4.98975 246.571C9.42245 246.57 13.8535 246.551 18.2783 246.498Z" fill="white" fill-opacity="0.5"/>
<path d="M227.473 80.5676C227.415 80.5436 227.347 80.5425 227.288 80.567C227.255 80.5809 227.234 80.6109 227.22 80.6443C220.858 95.7837 214.704 111.068 208.455 126.244C207.47 128.636 208.471 131.378 210.726 132.646C229.29 143.094 245.744 157.511 257.572 175.549C258.934 177.626 261.519 178.403 263.723 177.259C271.324 173.313 288.292 164.314 299.301 158.284C300.897 157.41 301.883 155.735 301.883 153.915V145.763C301.883 144.789 301.604 143.84 301.06 143.031C283.932 117.585 252.7 90.92 227.473 80.5676Z" fill="white" fill-opacity="0.5"/>
<path d="M271.334 190.534C269.067 191.752 268.104 194.488 269.025 196.89C274.47 211.095 277.884 226.313 278.738 241.607C278.888 244.29 281.047 246.455 283.735 246.487C288.117 246.539 292.504 246.56 296.894 246.563C299.651 246.564 301.883 244.327 301.883 241.569V182.479C301.883 178.697 297.846 176.284 294.514 178.075C286.761 182.244 279.035 186.396 271.334 190.534Z" fill="white" fill-opacity="0.5"/>
</g>
</svg>
