<?xml version="1.0" encoding="UTF-8"?>
<svg id="Calque_2" data-name="Calque 2" xmlns="http://www.w3.org/2000/svg" viewBox="0 0 1576 141">
  <defs>
    <style>
      .cls-1 {
        fill: #fff;
      }
    </style>
  </defs>
  <g id="Calque_1-2" data-name="Calque 1">
    <g>
      <path class="cls-1" d="m788,140.5c-210.47,0-408.34-7.33-557.16-20.65C84.46,106.76.5,88.77.5,70.5S84.46,34.24,230.84,21.15C379.66,7.83,577.53.5,788,.5s408.34,7.33,557.16,20.65c146.39,13.1,230.34,31.09,230.34,49.35s-83.96,36.26-230.34,49.35c-148.82,13.31-346.69,20.65-557.16,20.65Z"/>
      <path d="m788,1c210.45,0,408.31,7.33,557.11,20.64,72.33,6.47,129.11,14,168.76,22.39,50.53,10.69,61.13,20.29,61.13,26.46,0,11.18-33.24,20.56-61.13,26.46-39.65,8.39-96.43,15.92-168.76,22.39-148.8,13.31-346.66,20.65-557.11,20.65s-408.31-7.33-557.11-20.65c-72.33-6.47-129.11-14-168.76-22.39C11.61,86.28,1,76.67,1,70.5c0-11.18,33.24-20.56,61.13-26.46,39.65-8.39,96.43-15.92,168.76-22.39C379.69,8.33,577.55,1,788,1m0-1C352.8,0,0,31.56,0,70.5s352.8,70.5,788,70.5,788-31.56,788-70.5S1223.2,0,788,0h0Z"/>
    </g>
  </g>
</svg>