<svg width="303" height="383" viewBox="0 0 303 383" fill="none" xmlns="http://www.w3.org/2000/svg">
<path d="M298 0H5.42676C2.66533 0 0.426758 2.23858 0.426758 5V377.64C0.426758 380.401 2.66533 382.64 5.42675 382.64H298C300.761 382.64 303 380.401 303 377.64V5C303 2.23858 300.761 0 298 0Z" fill="#FB8B24"/>
<path opacity="0.3" d="M69.736 380.073H54.3094C50.8899 380.073 48.4711 376.709 49.2351 373.376C50.4641 368.014 51.08 362.51 51.08 357.186V251.989C51.08 249.227 48.8414 246.989 46.08 246.989H33.4821C25.6512 246.989 16.237 249.944 9.65252 254.562C9.49596 254.645 9.30762 254.532 9.30762 254.355V248.758C9.30762 246.766 10.9228 245.151 12.9152 245.151H104.117C106.147 245.151 107.793 246.796 107.793 248.826V254.352C107.793 254.533 107.603 254.651 107.441 254.571C107.43 254.565 107.419 254.559 107.409 254.552C100.825 249.939 91.4197 246.989 83.6026 246.989H70.9891C68.2277 246.989 65.9891 249.227 65.9891 251.989V357.186C65.9891 364.754 67.2417 372.687 69.7154 380.058C69.7184 380.067 69.7267 380.073 69.736 380.073Z" fill="white" fill-opacity="0.5"/>
<path opacity="0.3" d="M190.703 243.107C230.876 243.107 257.535 270.969 257.535 312.513C257.535 354.057 230.876 381.919 190.703 381.919C150.529 381.919 123.87 354.231 123.87 312.513C123.87 270.795 150.529 243.107 190.703 243.107ZM190.334 380.073C221.979 380.073 242.767 353.13 242.767 312.331C242.767 271.532 222.152 245.143 190.695 245.143C159.238 245.143 138.779 272.086 138.779 312.687C138.779 353.288 159.223 380.073 190.326 380.073H190.334Z" fill="white" fill-opacity="0.5"/>
<path opacity="0.3" d="M9.30765 101.403H55.1718C74.3295 101.403 88.6038 105.452 97.9788 113.548C107.37 121.629 112.057 132.442 112.057 145.957C112.057 162.393 105.765 174.398 93.1757 181.949C90.7592 183.398 89.6712 186.437 90.9345 188.956L113.732 234.407C115.399 237.732 112.982 241.649 109.262 241.649H89.3031C87.3364 241.649 85.5524 240.496 84.7445 238.703L64.4719 193.711C63.6085 191.795 61.6385 190.622 59.5375 190.672C58.2802 190.702 56.8221 190.718 55.164 190.718H44.8079C42.0465 190.718 39.808 192.956 39.808 195.718V236.649C39.808 239.41 37.5694 241.649 34.808 241.649H14.2998C11.5384 241.649 9.2998 239.41 9.2998 236.649V101.411C9.2998 101.407 9.30332 101.403 9.30765 101.403ZM39.8158 128.648V158.473C39.8158 161.235 42.0544 163.473 44.8158 163.473H55.1718C65.1426 163.473 72.5266 162.182 77.3161 159.591C82.1055 157.001 84.5041 152.469 84.5041 145.957C84.5041 139.445 82.1055 134.962 77.3161 132.442C72.5266 129.915 65.1426 128.655 55.1718 128.655H39.8237C39.8193 128.655 39.8158 128.652 39.8158 128.648Z" fill="white" fill-opacity="0.5"/>
<path opacity="0.3" d="M175.012 104.637C175.746 102.691 177.609 101.403 179.689 101.403H208.199C210.279 101.403 212.142 102.691 212.877 104.637L262.051 234.883C263.286 238.153 260.869 241.649 257.374 241.649H235.029C232.93 241.649 231.055 240.338 230.333 238.368L223.486 219.659C222.765 217.688 220.889 216.377 218.791 216.377H169.09C166.991 216.377 165.116 217.688 164.394 219.659L157.547 238.368C156.826 240.338 154.95 241.649 152.851 241.649H130.514C127.019 241.649 124.602 238.153 125.837 234.883L175.012 104.637ZM198.64 151.721C197.043 147.334 190.838 147.334 189.242 151.722L178.077 182.424C176.891 185.685 179.306 189.133 182.776 189.133H205.112C208.582 189.133 210.997 185.685 209.81 182.424L198.64 151.721Z" fill="white" fill-opacity="0.5"/>
</svg>
