<svg width="207" height="75" viewBox="0 0 207 75" fill="none" xmlns="http://www.w3.org/2000/svg">
<path d="M25.637 6.57396C26.4634 8.47697 27.1824 10.4706 28.0585 12.3242C33.5957 10.5118 39.1411 10.5118 44.6783 12.3242C46.1246 9.08659 47.4304 5.70895 48.8188 2.42194C41.7857 -0.477886 30.951 -0.477886 23.918 2.42194C24.48 3.80595 25.0667 5.18995 25.637 6.57396Z" fill="black"/>
<path d="M21.1824 15.9324C22.4303 14.9521 23.8766 14.2518 25.2072 13.4527C23.8353 10.1739 22.4882 6.87045 21.0915 3.59167C21.0915 3.59167 21.075 3.58343 21.0667 3.5752C15.2899 5.90659 7.94275 12.4559 5.02539 18.0414C6.85184 19.0958 14.1989 22.9266 14.5543 23.0831C16.3146 20.2904 18.513 17.8848 21.1824 15.9242V15.9324Z" fill="black"/>
<path d="M3.43887 20.9581C1.19093 25.7609 -0.123115 31.091 0.00911685 36.3964C3.59589 36.3716 7.17441 36.4375 10.7364 36.3716C10.8108 32.7304 11.6455 29.0809 13.0587 25.7444C9.91821 24.0803 6.75292 22.3998 3.56284 20.7109C3.50498 20.8098 3.46366 20.8839 3.4306 20.9581H3.43887Z" fill="black"/>
<path d="M28.6121 21.6579C28.0336 20.3974 27.6204 19.0134 26.9592 17.8271C23.5791 19.516 20.7278 22.0945 18.6865 25.2909C21.8766 26.9797 25.075 28.7344 28.2816 30.3491C29.0997 29.3441 30.0502 28.4955 31.1328 27.7788C30.3146 25.7275 29.4386 23.7009 28.6039 21.6579H28.6121Z" fill="black"/>
<path d="M22.736 30.8849C20.893 29.9457 19.0914 28.8748 17.2401 28.0098C16.141 30.3823 15.3311 33.9824 15.5129 36.3962C19.0997 36.3632 22.6947 36.4621 26.2732 36.355C26.298 35.2264 26.4881 34.1389 26.8352 33.0597C25.4798 32.3101 24.0997 31.6098 22.736 30.8766V30.8849Z" fill="black"/>
<path d="M67.7111 18.0502C64.802 12.4565 57.4467 5.91538 51.6698 3.58398C51.6615 3.58398 51.6533 3.58398 51.645 3.60046C50.2483 6.871 48.9095 10.1827 47.5293 13.4615C51.8268 15.6858 55.6285 18.9316 58.1822 23.1001C58.5541 22.9436 65.8764 19.1211 67.7111 18.0584V18.0502Z" fill="black"/>
<path d="M72.7118 34.3451C72.4556 29.6246 71.2572 24.9618 69.1746 20.7109C65.9845 22.3998 62.8275 24.0803 59.6787 25.7444C61.0919 29.0726 61.9266 32.7221 62.001 36.3716C65.563 36.4375 69.1415 36.3716 72.7283 36.3964C72.8275 35.7208 72.72 35.0288 72.7118 34.3451Z" fill="black"/>
<path d="M42.7114 16.5836C38.5544 15.2902 33.9511 15.249 29.8271 16.6742C31.2073 20.0024 32.5792 23.3142 33.9594 26.6341C35.5544 26.2964 37.1825 26.2964 38.7776 26.6341C40.1577 23.3142 41.5296 20.0024 42.9098 16.6742C42.8354 16.6413 42.7776 16.6083 42.7114 16.5836Z" fill="black"/>
<path d="M54.0424 25.2997C52.0094 22.1033 49.1499 19.5248 45.7697 17.8359C44.2656 21.057 42.9846 24.4841 41.5879 27.7876C42.6788 28.5043 43.6209 29.3529 44.4391 30.3579C47.654 28.7432 50.8441 26.9885 54.0342 25.2997H54.0424Z" fill="black"/>
<path d="M55.4964 28.0098C52.2733 29.608 49.0914 31.3792 45.9014 33.068C46.2567 34.1472 46.4386 35.2264 46.4634 36.3632C50.0419 36.4703 53.6369 36.3632 57.2237 36.4044C57.3972 33.9824 56.5956 30.3988 55.4964 28.018V28.0098Z" fill="black"/>
<path d="M93.9342 45.9599C94.4797 45.0537 94.9425 44.1146 95.6119 43.5544H83.645C81.7937 43.5544 79.5706 44.2464 78.0169 45.3173L77.9342 45.3585V43.126H100.447C99.1491 44.0734 97.4218 47.2533 96.5458 48.6702L81.0086 74.1343H93.4384C95.2896 74.1343 97.5128 73.4011 99.0665 72.3714L99.1491 72.3302V74.5627H76.6367L93.9425 45.9599H93.9342Z" fill="#1D1D1B"/>
<path d="M113.1 74.5715H107.852L107.893 74.3985C108.438 72.8497 108.736 70.782 108.736 69.2414V48.4648C108.736 46.8749 108.438 44.8071 107.893 43.3078L107.852 43.1348H113.1L113.058 43.3078C112.554 44.8153 112.215 46.8749 112.215 48.4648V69.2414C112.215 70.7902 112.554 72.858 113.058 74.3985L113.1 74.5715Z" fill="#1D1D1B"/>
<path d="M134.521 74.5715H129.232C129.818 72.8497 130.116 71.0044 130.116 69.2414V43.5631H125.959C124.116 43.5631 121.884 44.2552 120.331 45.3261L120.248 45.3673V43.1348H143.513V45.3673L143.43 45.3261C141.876 44.2469 139.645 43.5631 137.802 43.5631H133.645V69.2414C133.645 71.0044 133.942 72.858 134.529 74.5715H134.521Z" fill="#1D1D1B"/>
<path d="M162.628 74.5715H157.339C157.926 72.8497 158.223 71.0044 158.223 69.2414V43.5631H154.066C152.215 43.5631 149.992 44.2552 148.438 45.3261L148.355 45.3673V43.1348H171.62V45.3673L171.537 45.3261C169.984 44.2469 167.76 43.5631 165.909 43.5631H161.752V69.2414C161.752 71.0044 162.05 72.858 162.636 74.5715H162.628Z" fill="#1D1D1B"/>
<path d="M191.207 42.6484C200.695 42.6484 207.001 49.1401 207.001 58.8199C207.001 68.4997 200.703 74.9914 191.207 74.9914C181.712 74.9914 175.414 68.5409 175.414 58.8199C175.414 49.0989 181.712 42.6484 191.207 42.6484ZM191.125 74.563C198.604 74.563 203.513 68.2855 203.513 58.7787C203.513 49.2719 198.645 43.1262 191.207 43.1262C183.769 43.1262 178.943 49.4037 178.943 58.8693C178.943 68.3349 183.769 74.5712 191.125 74.5712V74.563Z" fill="#1D1D1B"/>
<path d="M77.9014 0H89.9757C95.0171 0 98.7774 1.05448 101.24 3.15521C103.711 5.25593 104.943 8.0569 104.943 11.5663C104.943 15.0758 103.711 17.8932 101.24 20.0104C98.7691 22.1276 95.0171 23.1821 89.9757 23.1821H85.9344V36.4043H77.9014V0ZM85.9344 7.07656V16.1138H89.9757C92.6038 16.1138 94.546 15.776 95.8022 15.1087C97.0584 14.4415 97.6947 13.2634 97.6947 11.5663C97.6947 9.86929 97.0667 8.71595 95.8022 8.0569C94.5377 7.39785 92.5956 7.07656 89.9757 7.07656H85.9344Z" fill="#1D1D1B"/>
<path d="M108.059 36.4043V0H133.34V7.07656H116.083V14.6145H131.629V21.7404H116.083V29.336H133.34V36.4126H108.059V36.4043Z" fill="#1D1D1B"/>
<path d="M137.174 0H149.248C154.289 0 158.05 1.05448 160.513 3.15521C162.984 5.25593 164.215 8.0569 164.215 11.5663C164.215 16.3198 162.157 19.648 158.05 21.5345L165.612 36.4043H157.372L151.306 23.1327C150.86 23.1656 150.165 23.1821 149.232 23.1821H145.19V36.4043H137.157V0H137.174ZM145.207 7.07656V16.1138H149.248C151.876 16.1138 153.818 15.776 155.075 15.1087C156.331 14.4415 156.967 13.2634 156.967 11.5663C156.967 9.86929 156.339 8.71595 155.075 8.0569C153.81 7.39785 151.868 7.07656 149.248 7.07656H145.207Z" fill="#1D1D1B"/>
<path d="M181.108 0H190.43L204.364 36.4043H195.662L193.224 29.8468H178.307L175.868 36.4043H167.166L181.108 0ZM185.769 9.70453L180.951 22.7702H190.587L185.769 9.70453Z" fill="#1D1D1B"/>
</svg>
