<svg width="302" height="382" viewBox="0 0 302 382" fill="none" xmlns="http://www.w3.org/2000/svg">
<path d="M297 0.0556641H5.11719C2.35576 0.0556641 0.117188 2.29424 0.117188 5.05567V376.686C0.117188 379.447 2.35576 381.686 5.11718 381.686H297C299.762 381.686 302 379.447 302 376.686V5.05566C302 2.29424 299.762 0.0556641 297 0.0556641Z" fill="#0F4C5C"/>
<path opacity="0.3" d="M69.2691 379.126H46.9329C49.4121 371.77 50.6555 363.853 50.6555 356.299V246.393H33.0979C25.2849 246.393 15.8921 249.34 9.32263 253.946L8.97852 254.128V244.56H107.239V254.128L106.872 253.946C100.302 249.34 90.9092 246.393 83.1041 246.393H65.5307V356.299C65.5307 363.853 66.7821 371.77 69.2534 379.126H69.2691Z" fill="white" fill-opacity="0.5"/>
<path opacity="0.3" d="M189.952 242.521C230.033 242.521 256.632 270.31 256.632 311.744C256.632 353.178 230.033 380.967 189.952 380.967C149.87 380.967 123.271 353.352 123.271 311.744C123.271 270.136 149.87 242.521 189.952 242.521ZM189.584 379.126C221.157 379.126 241.897 352.254 241.897 311.563C241.897 270.871 221.329 244.552 189.944 244.552C158.559 244.552 138.147 271.424 138.147 311.918C138.147 352.412 158.543 379.126 189.576 379.126H189.584Z" fill="white" fill-opacity="0.5"/>
<path opacity="0.3" d="M8.97072 101.191H54.7302C73.8443 101.191 88.0859 105.229 97.4396 113.304C106.809 121.363 111.486 132.148 111.486 145.628C111.486 163.888 103.696 176.664 88.1094 183.925L116.78 241.067H85.5598L62.5745 190.072C60.8696 190.199 58.2496 190.27 54.7224 190.27H39.4015V241.067H8.96289V101.191H8.97072ZM39.4093 128.364V163.098H54.7302C64.6783 163.098 72.0455 161.81 76.824 159.226C81.6025 156.642 83.9957 152.123 83.9957 145.628C83.9957 139.133 81.6025 134.661 76.824 132.148C72.0455 129.636 64.6783 128.372 54.7302 128.372H39.4093V128.364Z" fill="white" fill-opacity="0.5"/>
<path opacity="0.3" d="M175.514 101.191H210.856L263.686 241.067H230.69L221.461 215.862H164.901L155.673 241.067H122.685L175.514 101.191ZM193.181 138.493L174.92 188.69H211.451L193.181 138.493Z" fill="white" fill-opacity="0.5"/>
</svg>
